<svg width="26" height="26" viewBox="0 0 26 26" fill="none" xmlns="http://www.w3.org/2000/svg">
<path d="M11.426 19.9949C13.6986 19.9949 15.8782 19.0921 17.4851 17.4851C19.0921 15.8782 19.9949 13.6986 19.9949 11.426C19.9949 9.15336 19.0921 6.97381 17.4851 5.36682C15.8782 3.75983 13.6986 2.85703 11.426 2.85703C9.15336 2.85703 6.97381 3.75983 5.36682 5.36682C3.75983 6.97381 2.85703 9.15336 2.85703 11.426C2.85703 13.6986 3.75983 15.8782 5.36682 17.4851C6.97381 19.0921 9.15336 19.9949 11.426 19.9949ZM20.4519 18.4325L25.5647 23.5453C25.701 23.6772 25.8097 23.8348 25.8845 24.0091C25.9592 24.1834 25.9984 24.3709 26 24.5605C26.0015 24.7501 25.9652 24.9381 25.8933 25.1136C25.8213 25.2891 25.7152 25.4484 25.581 25.5824C25.4468 25.7164 25.2873 25.8224 25.1117 25.8941C24.9361 25.9657 24.7481 26.0017 24.5584 26C24.3688 25.9982 24.1814 25.9587 24.0072 25.8837C23.8331 25.8087 23.6755 25.6998 23.5439 25.5633L18.4311 20.4505C16.1353 22.2326 13.2466 23.0729 10.3531 22.8001C7.45958 22.5274 4.77877 21.1622 2.85639 18.9825C0.934015 16.8027 -0.0854211 13.9723 0.00561126 11.0674C0.0966436 8.1625 1.2913 5.40147 3.34639 3.34639C5.40147 1.2913 8.1625 0.0966436 11.0674 0.00561126C13.9723 -0.0854211 16.8027 0.934015 18.9825 2.85639C21.1622 4.77877 22.5274 7.45958 22.8001 10.3531C23.0729 13.2466 22.2326 16.1353 20.4505 18.4311L20.4519 18.4325Z" fill="#EB5757"/>
</svg>
