<svg width="21" height="17" viewBox="0 0 21 17" fill="none" xmlns="http://www.w3.org/2000/svg">
<path d="M18.1195 4.31044V4.81911C18.1173 6.21823 17.8639 7.60509 17.3718 8.91086C16.874 10.2517 16.1543 11.4952 15.2442 12.5872C14.26 13.7452 13.039 14.6686 11.6673 15.2921C10.1541 15.9963 8.50766 16.3515 6.8449 16.3326C4.69365 16.3483 2.58481 15.7215 0.777832 14.5293C1.07923 14.5602 1.39619 14.5756 1.72871 14.5756C3.5163 14.5942 5.25684 13.9909 6.66399 12.8648C5.82012 12.846 5.00378 12.5547 4.33211 12.0326C3.67379 11.5393 3.18935 10.8418 2.9511 10.0442C3.18784 10.1057 3.43115 10.1368 3.67542 10.1368C4.03053 10.138 4.38309 10.0754 4.71692 9.95169C3.82586 9.7758 3.02415 9.28444 2.45301 8.56416C1.8603 7.85602 1.53863 6.95272 1.54745 6.02118V5.97491C2.10676 6.27949 2.7254 6.45324 3.35857 6.48358C2.8052 6.12311 2.35204 5.62319 2.04277 5.03197C1.73349 4.44075 1.57851 3.77816 1.59276 3.10802C1.58663 2.3917 1.77472 1.68762 2.1362 1.07371C3.12529 2.30108 4.35041 3.3082 5.7358 4.0328C7.14812 4.77518 8.69944 5.20091 10.2859 5.28147C10.2258 4.97707 10.1955 4.66729 10.1956 4.35675C10.1963 3.29008 10.6115 2.26728 11.3501 1.51302C12.0887 0.758765 13.0902 0.334738 14.1347 0.334082C14.6764 0.323216 15.2143 0.42873 15.7136 0.643783C16.2128 0.858837 16.6622 1.17863 17.0327 1.58243C17.9242 1.40265 18.7807 1.0746 19.5681 0.611376C19.2771 1.5535 18.6457 2.34709 17.8023 2.83078C18.5961 2.74388 19.3736 2.54142 20.1112 2.22957C19.5666 3.03268 18.8933 3.73619 18.1195 4.31044Z" fill="white"/>
</svg>
