<svg version="1" xmlns="http://www.w3.org/2000/svg" width="341.333" height="341.333" viewBox="0 0 256.000000 256.000000"><path d="M52 8.7c0 3 .3 3.3 3 3.3 5.8 0 13.2 2.2 16.2 4.9 5.4 4.8 5.8 9 5.8 63.1v48.5L99.4 189l22.3 60.5 65.4.5c36 .3 65.5.4 65.7.4.1-.1-.2-7.3-.9-16-.6-8.8-.9-28.8-.7-44.7l.3-28.7h-7.2l-1.8 8.7c-5.5 26.6-16.2 48.1-29.8 59.7-13.3 11.2-20.4 13.6-40.4 13.6-15.9 0-19.9-1-23-5.6-1.7-2.6-1.8-6.4-2.1-54.3-.2-28.2.1-51.7.5-52.2 1.8-1.7 16.7 1 23.2 4.2 12.5 6.2 24 21.1 27.2 35.4l1.2 5.5H207l-.7-8.8c-.5-4.8-.8-26.8-.8-48.9V78H202c-3.5 0-3.5.1-5.7 7.3-3.8 12.3-15.3 27.6-25.3 33.5-4.9 2.9-13.5 5.2-19.2 5.2h-4.9l.3-50.8c.3-57.2.1-55.5 7.8-58.6 5.4-2.2 23.9-2.2 32.4 0 17.6 4.5 32 18 40.3 37.8 3.5 8.3 7.6 22.5 8.8 30.8.7 4.7.8 4.8 4.4 4.8h3.6V60.8c0-15 .4-33.6.8-41.3l.8-14H52v3.2zM77 213.2c0 23-3.6 28.8-18.8 30.4-6.2.7-6.2.7-6.2 3.9v3.3l20.8-.5c11.4-.2 21-.5 21.3-.6.6-.2-15.6-45.6-16.7-46.6-.2-.2-.4 4.3-.4 10.1z"/></svg>