<svg width="166" height="50" viewBox="0 0 166 50" fill="none" xmlns="http://www.w3.org/2000/svg">
<path d="M35.4001 33.968C35.4001 35.6 35.4561 36.944 35.5681 38C34.4801 37.952 32.6481 37.928 30.0721 37.928C26.3281 37.928 23.5281 37.952 21.6721 38V37.52C22.1841 37.488 22.5521 37.424 22.7761 37.328C23.0161 37.232 23.1761 37.048 23.2561 36.776C23.3361 36.504 23.3761 36.064 23.3761 35.456V23.552C23.3761 22.944 23.3281 22.504 23.2321 22.232C23.1521 21.96 23.0001 21.776 22.7761 21.68C22.5521 21.584 22.1841 21.52 21.6721 21.488V21.008C23.5281 21.056 26.3281 21.08 30.0721 21.08C32.4241 21.08 34.0961 21.056 35.0881 21.008C34.9761 22.512 34.9201 23.856 34.9201 25.04C34.9201 25.776 34.9441 26.352 34.9921 26.768H34.4401C34.1521 24.912 33.6161 23.584 32.8321 22.784C32.0481 21.968 31.1121 21.56 30.0241 21.56H29.7121C29.2801 21.56 28.9601 21.6 28.7521 21.68C28.5601 21.744 28.4241 21.88 28.3441 22.088C28.2801 22.28 28.2481 22.608 28.2481 23.072V29.216H28.4881C29.3201 29.216 30.0321 28.888 30.6241 28.232C31.2161 27.576 31.5921 26.848 31.7521 26.048H32.3041C32.2561 26.72 32.2321 27.472 32.2321 28.304V29.456C32.2321 30.272 32.2801 31.408 32.3761 32.864H31.8241C31.6801 31.952 31.3041 31.2 30.6961 30.608C30.1041 30 29.3681 29.696 28.4881 29.696H28.2481V35.936C28.2481 36.4 28.2801 36.736 28.3441 36.944C28.4241 37.136 28.5601 37.272 28.7521 37.352C28.9601 37.416 29.2801 37.448 29.7121 37.448H30.5041C31.4321 37.448 32.3121 37 33.1441 36.104C33.9761 35.192 34.5681 33.744 34.9201 31.76H35.4721C35.4241 32.336 35.4001 33.072 35.4001 33.968ZM43.8575 20.672C44.7695 20.672 45.5055 20.76 46.0655 20.936C46.6415 21.096 47.2015 21.328 47.7455 21.632C47.9215 21.728 48.0735 21.808 48.2015 21.872C48.3455 21.936 48.4655 21.968 48.5615 21.968C48.7055 21.968 48.8175 21.888 48.8975 21.728C48.9775 21.552 49.0415 21.28 49.0895 20.912H49.6415C49.5615 22.064 49.5215 24.016 49.5215 26.768H48.9695C48.9055 25.856 48.6975 24.984 48.3455 24.152C47.9935 23.32 47.5135 22.64 46.9055 22.112C46.2975 21.584 45.5935 21.32 44.7935 21.32C44.0575 21.32 43.4655 21.52 43.0175 21.92C42.5695 22.304 42.3455 22.848 42.3455 23.552C42.3455 24.096 42.4655 24.568 42.7055 24.968C42.9455 25.368 43.2975 25.76 43.7615 26.144C44.2255 26.512 44.9855 27.064 46.0415 27.8C46.1375 27.848 46.2255 27.904 46.3055 27.968C46.4015 28.032 46.4895 28.096 46.5695 28.16C47.4495 28.768 48.1535 29.312 48.6815 29.792C49.2095 30.256 49.6335 30.8 49.9535 31.424C50.2895 32.048 50.4575 32.768 50.4575 33.584C50.4575 34.624 50.1615 35.504 49.5695 36.224C48.9935 36.928 48.2095 37.456 47.2175 37.808C46.2255 38.16 45.1295 38.336 43.9295 38.336C42.9535 38.336 42.1375 38.256 41.4815 38.096C40.8415 37.936 40.2415 37.72 39.6815 37.448C39.3295 37.224 39.0575 37.112 38.8655 37.112C38.7215 37.112 38.6095 37.2 38.5295 37.376C38.4495 37.536 38.3855 37.8 38.3375 38.168H37.7855C37.8495 37.08 37.8815 34.76 37.8815 31.208H38.4335C38.5455 33.112 38.9455 34.656 39.6335 35.84C40.3215 37.024 41.3775 37.616 42.8015 37.616C43.6815 37.616 44.3775 37.408 44.8895 36.992C45.4175 36.576 45.6815 36 45.6815 35.264C45.6815 34.352 45.3935 33.576 44.8175 32.936C44.2575 32.28 43.3775 31.552 42.1775 30.752C41.2175 30.112 40.4495 29.552 39.8735 29.072C39.2975 28.592 38.8255 28.04 38.4575 27.416C38.0895 26.776 37.9055 26.04 37.9055 25.208C37.9055 24.2 38.1775 23.36 38.7215 22.688C39.2655 22 39.9855 21.496 40.8815 21.176C41.7935 20.84 42.7855 20.672 43.8575 20.672ZM58.5762 20.672C59.4882 20.672 60.2242 20.76 60.7842 20.936C61.3602 21.096 61.9202 21.328 62.4642 21.632C62.6402 21.728 62.7922 21.808 62.9202 21.872C63.0642 21.936 63.1842 21.968 63.2802 21.968C63.4242 21.968 63.5362 21.888 63.6162 21.728C63.6962 21.552 63.7602 21.28 63.8082 20.912H64.3602C64.2802 22.064 64.2402 24.016 64.2402 26.768H63.6882C63.6242 25.856 63.4162 24.984 63.0642 24.152C62.7122 23.32 62.2322 22.64 61.6242 22.112C61.0162 21.584 60.3122 21.32 59.5122 21.32C58.7762 21.32 58.1842 21.52 57.7362 21.92C57.2882 22.304 57.0642 22.848 57.0642 23.552C57.0642 24.096 57.1842 24.568 57.4242 24.968C57.6642 25.368 58.0162 25.76 58.4802 26.144C58.9442 26.512 59.7042 27.064 60.7602 27.8C60.8562 27.848 60.9442 27.904 61.0242 27.968C61.1202 28.032 61.2082 28.096 61.2882 28.16C62.1682 28.768 62.8722 29.312 63.4002 29.792C63.9282 30.256 64.3522 30.8 64.6722 31.424C65.0082 32.048 65.1762 32.768 65.1762 33.584C65.1762 34.624 64.8802 35.504 64.2882 36.224C63.7122 36.928 62.9282 37.456 61.9362 37.808C60.9442 38.16 59.8482 38.336 58.6482 38.336C57.6722 38.336 56.8562 38.256 56.2002 38.096C55.5602 37.936 54.9602 37.72 54.4002 37.448C54.0482 37.224 53.7762 37.112 53.5842 37.112C53.4402 37.112 53.3282 37.2 53.2482 37.376C53.1682 37.536 53.1042 37.8 53.0562 38.168H52.5042C52.5682 37.08 52.6002 34.76 52.6002 31.208H53.1522C53.2642 33.112 53.6642 34.656 54.3522 35.84C55.0402 37.024 56.0962 37.616 57.5202 37.616C58.4002 37.616 59.0962 37.408 59.6082 36.992C60.1362 36.576 60.4002 36 60.4002 35.264C60.4002 34.352 60.1122 33.576 59.5362 32.936C58.9762 32.28 58.0962 31.552 56.8962 30.752C55.9362 30.112 55.1682 29.552 54.5922 29.072C54.0162 28.592 53.5442 28.04 53.1762 27.416C52.8082 26.776 52.6242 26.04 52.6242 25.208C52.6242 24.2 52.8962 23.36 53.4402 22.688C53.9842 22 54.7042 21.496 55.6002 21.176C56.5122 20.84 57.5042 20.672 58.5762 20.672ZM80.9851 35.984C81.1931 36.496 81.4171 36.88 81.6571 37.136C81.9131 37.376 82.1611 37.504 82.4011 37.52V38C81.2491 37.952 79.7931 37.928 78.0331 37.928C76.2091 37.928 74.8651 37.952 74.0011 38V37.52C74.6091 37.488 75.0411 37.416 75.2971 37.304C75.5531 37.176 75.6811 36.96 75.6811 36.656C75.6811 36.368 75.5851 35.984 75.3931 35.504L73.9771 31.568H69.1291L68.7211 32.648C68.1931 34.008 67.9291 35.048 67.9291 35.768C67.9291 36.424 68.1131 36.872 68.4811 37.112C68.8491 37.352 69.3931 37.488 70.1131 37.52V38C68.9131 37.952 67.8651 37.928 66.9691 37.928C66.2171 37.928 65.6011 37.952 65.1211 38V37.52C65.5211 37.456 65.8971 37.208 66.2491 36.776C66.6011 36.344 66.9611 35.656 67.3291 34.712L72.6571 21.008C73.1691 21.04 73.5931 21.056 73.9291 21.056C74.2491 21.056 74.6651 21.04 75.1771 21.008L80.9851 35.984ZM73.8091 31.088L71.6251 25.088L69.3211 31.088H73.8091ZM94.2286 21.056C94.9806 21.056 95.5966 21.032 96.0766 20.984V21.464C95.2606 21.864 94.4126 22.928 93.5326 24.656L91.3006 29.072V35.456C91.3006 36.064 91.3406 36.504 91.4206 36.776C91.5166 37.048 91.6766 37.232 91.9006 37.328C92.1246 37.424 92.4926 37.488 93.0046 37.52V38C92.0766 37.952 90.7006 37.928 88.8766 37.928C86.9726 37.928 85.5886 37.952 84.7246 38V37.52C85.2366 37.488 85.6046 37.424 85.8286 37.328C86.0686 37.232 86.2286 37.048 86.3086 36.776C86.3886 36.504 86.4286 36.064 86.4286 35.456V31.04L81.9886 22.832C81.7326 22.368 81.4846 22.032 81.2446 21.824C81.0046 21.6 80.7886 21.488 80.5966 21.488V20.984C81.5886 21.08 82.6926 21.128 83.9086 21.128C85.2846 21.128 87.0446 21.08 89.1886 20.984V21.488C88.5486 21.488 88.0686 21.52 87.7486 21.584C87.4286 21.648 87.2686 21.8 87.2686 22.04C87.2686 22.152 87.3006 22.272 87.3646 22.4L90.7966 28.976L91.8766 26.816C92.6286 25.312 93.0046 24.12 93.0046 23.24C93.0046 22.104 92.3646 21.512 91.0846 21.464V20.984C92.2846 21.032 93.3326 21.056 94.2286 21.056ZM114.162 37.04C113.682 37.52 113.154 37.856 112.578 38.048C112.002 38.24 111.33 38.336 110.562 38.336C109.458 38.336 108.602 38.144 107.994 37.76C107.386 37.36 107.01 36.688 106.866 35.744L106.506 33.344C106.346 32.224 106.122 31.376 105.834 30.8C105.562 30.224 105.146 29.936 104.586 29.936H103.506V35.456C103.506 36.064 103.546 36.504 103.626 36.776C103.722 37.048 103.882 37.232 104.106 37.328C104.33 37.424 104.698 37.488 105.21 37.52V38C104.282 37.952 102.946 37.928 101.202 37.928C99.2659 37.928 97.8419 37.952 96.9299 38V37.52C97.4419 37.488 97.8099 37.424 98.0339 37.328C98.2739 37.232 98.4339 37.048 98.5139 36.776C98.5939 36.504 98.6339 36.064 98.6339 35.456V23.552C98.6339 22.944 98.5859 22.504 98.4899 22.232C98.4099 21.96 98.2579 21.776 98.0339 21.68C97.8099 21.584 97.4419 21.52 96.9299 21.488V21.008C97.8419 21.056 99.2179 21.08 101.058 21.08L103.818 21.056C104.138 21.04 104.506 21.032 104.922 21.032C107.354 21.032 109.162 21.376 110.346 22.064C111.546 22.752 112.146 23.8 112.146 25.208C112.146 26.408 111.698 27.432 110.802 28.28C109.906 29.128 108.402 29.648 106.29 29.84C107.922 29.952 109.154 30.264 109.986 30.776C110.818 31.272 111.33 32.008 111.522 32.984L112.026 35.48C112.138 36.072 112.274 36.48 112.434 36.704C112.594 36.928 112.818 37.04 113.106 37.04C113.394 37.04 113.642 36.936 113.85 36.728L114.162 37.04ZM104.802 21.488C104.434 21.488 104.154 21.544 103.962 21.656C103.786 21.768 103.666 21.968 103.602 22.256C103.538 22.544 103.506 22.976 103.506 23.552V29.456H104.154C105.29 29.456 106.066 29.112 106.482 28.424C106.898 27.72 107.106 26.736 107.106 25.472C107.106 24.16 106.922 23.168 106.554 22.496C106.202 21.824 105.618 21.488 104.802 21.488ZM130.163 36.296C130.499 36.776 130.755 37.096 130.931 37.256C131.107 37.4 131.347 37.48 131.651 37.496V38C131.427 38 131.243 37.992 131.099 37.976C129.275 37.928 128.091 37.904 127.547 37.904C126.939 37.904 125.723 37.928 123.899 37.976C123.755 37.992 123.579 38 123.371 38V37.496C123.899 37.496 124.275 37.464 124.499 37.4C124.739 37.336 124.859 37.232 124.859 37.088C124.859 36.976 124.803 36.84 124.691 36.68L120.683 30.968L119.219 32.792C118.403 33.816 117.995 34.752 117.995 35.6C117.995 36.16 118.171 36.608 118.523 36.944C118.875 37.28 119.363 37.472 119.987 37.52V38C119.075 37.952 117.691 37.928 115.835 37.928C114.811 37.928 114.035 37.952 113.507 38V37.52C114.755 36.992 116.083 35.856 117.491 34.112L120.371 30.512L114.899 22.688C114.563 22.208 114.307 21.896 114.131 21.752C113.955 21.592 113.715 21.504 113.411 21.488V20.984C113.651 20.984 113.851 20.992 114.011 21.008C115.883 21.056 117.131 21.08 117.755 21.08C118.299 21.08 119.411 21.056 121.091 21.008C121.235 20.992 121.411 20.984 121.619 20.984V21.488C121.091 21.488 120.707 21.52 120.467 21.584C120.243 21.648 120.131 21.752 120.131 21.896C120.131 22.008 120.187 22.144 120.299 22.304L123.779 27.248L125.147 25.568C125.947 24.624 126.347 23.784 126.347 23.048C126.347 22.6 126.203 22.24 125.915 21.968C125.627 21.696 125.211 21.536 124.667 21.488V21.008C125.579 21.056 126.643 21.08 127.859 21.08C128.883 21.08 129.659 21.056 130.187 21.008V21.488C129.675 21.68 129.131 22.032 128.555 22.544C127.979 23.04 127.443 23.592 126.947 24.2L124.091 27.704L130.163 36.296Z" fill="#333333"/>
<path d="M15.2501 46.7H16.9001L3.30012 9.9H1.65012L15.2501 46.7Z" fill="#EB5757"/>
<path d="M139.25 33.09C138.4 33.09 137.63 32.905 136.94 32.535C136.25 32.155 135.705 31.635 135.305 30.975C134.915 30.315 134.72 29.575 134.72 28.755C134.72 27.945 134.915 27.21 135.305 26.55C135.705 25.89 136.25 25.37 136.94 24.99C137.63 24.61 138.4 24.42 139.25 24.42C140.64 24.42 141.715 24.84 142.475 25.68L141.785 26.385C141.115 25.705 140.28 25.365 139.28 25.365C138.62 25.365 138.025 25.515 137.495 25.815C136.965 26.105 136.55 26.51 136.25 27.03C135.95 27.54 135.8 28.115 135.8 28.755C135.8 29.395 135.95 29.975 136.25 30.495C136.55 31.005 136.965 31.41 137.495 31.71C138.025 32 138.62 32.145 139.28 32.145C140.3 32.145 141.135 31.805 141.785 31.125L142.475 31.83C141.705 32.67 140.63 33.09 139.25 33.09ZM148.069 33.09C147.219 33.09 146.444 32.905 145.744 32.535C145.054 32.155 144.509 31.635 144.109 30.975C143.719 30.315 143.524 29.575 143.524 28.755C143.524 27.945 143.719 27.21 144.109 26.55C144.509 25.89 145.054 25.37 145.744 24.99C146.444 24.61 147.219 24.42 148.069 24.42C148.929 24.42 149.704 24.61 150.394 24.99C151.084 25.36 151.624 25.88 152.014 26.55C152.414 27.21 152.614 27.945 152.614 28.755C152.614 29.575 152.414 30.315 152.014 30.975C151.624 31.635 151.084 32.155 150.394 32.535C149.704 32.905 148.929 33.09 148.069 33.09ZM148.069 32.16C148.719 32.16 149.309 32.015 149.839 31.725C150.369 31.425 150.784 31.02 151.084 30.51C151.384 29.99 151.534 29.41 151.534 28.77C151.534 28.12 151.384 27.54 151.084 27.03C150.784 26.51 150.369 26.105 149.839 25.815C149.309 25.515 148.719 25.365 148.069 25.365C147.419 25.365 146.829 25.515 146.299 25.815C145.769 26.105 145.354 26.51 145.054 27.03C144.754 27.54 144.604 28.12 144.604 28.77C144.604 29.41 144.754 29.99 145.054 30.51C145.354 31.02 145.769 31.425 146.299 31.725C146.829 32.015 147.419 32.16 148.069 32.16ZM162.921 33V26.475L159.681 31.935H159.186L155.946 26.565V33H154.911V24.525H155.841L159.441 30.6L163.026 24.525H163.956L163.971 33H162.921Z" fill="#828282"/>
</svg>
